<svg width="81" height="80" viewBox="0 0 81 80" fill="none" xmlns="http://www.w3.org/2000/svg">
<path d="M39.6937 69.003C22.7421 69.003 8.9494 55.1519 8.9494 38.1284C8.9494 21.105 22.7421 7.25378 39.6937 7.25378C56.6452 7.25378 70.4379 21.105 70.4379 38.1284C70.4379 55.1519 56.6452 69.003 39.6937 69.003ZM39.6937 12.9582C25.8766 12.9582 14.6338 24.2487 14.6338 38.1243C14.6338 52 25.8766 63.2905 39.6937 63.2905C53.5107 63.2905 64.7536 52 64.7536 38.1243C64.7536 24.2487 53.5107 12.9582 39.6937 12.9582Z" fill="#2D6961"/>
<path d="M22.8394 40.5668C22.3887 39.8899 22.007 39.1682 21.6984 38.418C21.4264 37.6718 21.2477 36.9011 21.0772 36.102C20.9635 35.3191 20.927 34.5199 20.9107 33.7044C20.8986 33.2967 20.9635 32.9093 21.0001 32.5056C21.0447 32.106 21.0813 31.6983 21.1544 31.2987C21.2234 30.8991 21.3411 30.5158 21.4345 30.1162C21.5441 29.7248 21.67 29.3374 21.7878 28.946C21.9177 28.5586 22.0842 28.1876 22.2506 27.8165C22.4171 27.4414 22.5917 27.0744 22.7744 26.7034C23.1764 25.9939 23.6311 25.3089 24.094 24.6279C24.6056 23.9878 25.1456 23.3721 25.7018 22.7646C26.3068 22.21 26.9199 21.6636 27.5614 21.154C28.2395 20.6932 28.9216 20.2325 29.6281 19.8329C30.363 19.47 31.102 19.1234 31.8612 18.8461C32.6368 18.5933 33.4163 18.369 34.2 18.21C34.5979 18.1366 35.0039 18.104 35.4018 18.0551C35.8038 18.0184 36.1895 17.9531 36.5955 17.9654C37.4035 17.9817 38.1993 18.0184 38.9789 18.1325C39.7706 18.3038 40.538 18.4791 41.281 18.7523C42.0281 19.0622 42.7468 19.4414 43.4208 19.8899V20.42L41.4597 20.5831C40.8141 20.685 40.1726 20.8196 39.5311 20.9338C38.8977 21.0846 38.2724 21.2763 37.643 21.4475C37.0259 21.6555 36.425 21.9124 35.82 22.1407C33.4366 23.1764 31.24 24.6484 29.421 26.5077C27.5736 28.3385 26.1079 30.5403 25.0766 32.9338C24.8492 33.5454 24.5934 34.1448 24.3863 34.7646C24.2198 35.3966 24.029 36.0204 23.8747 36.6606C23.761 37.3048 23.627 37.9491 23.5255 38.5974L23.3631 40.5668H22.8394Z" fill="#FFCB46"/>
<path d="M63.3214 52.8173L60.2814 57.641L77.46 68.5594L80.5 63.7358L63.3214 52.8173Z" fill="#2D6961"/>
<path d="M3.87813 55.2293C3.87813 56.1671 3.12292 56.9255 2.18907 56.9255C1.25521 56.9255 0.5 56.1671 0.5 55.2293C0.5 54.2915 1.25521 53.5331 2.18907 53.5331C3.12292 53.5372 3.87813 54.2956 3.87813 55.2293Z" fill="#FFCB46"/>
<path d="M18.3041 79.9999C20.3649 79.9999 22.0355 78.3222 22.0355 76.2527C22.0355 74.1832 20.3649 72.5055 18.3041 72.5055C16.2433 72.5055 14.5728 74.1832 14.5728 76.2527C14.5728 78.3222 16.2433 79.9999 18.3041 79.9999Z" fill="#FFCB46"/>
<path d="M10.0942 3.74311C11.1235 3.74311 11.9579 2.90518 11.9579 1.87154C11.9579 0.837911 11.1235 0 10.0942 0C9.06498 0 8.23059 0.837911 8.23059 1.87154C8.23059 2.90518 9.06498 3.74311 10.0942 3.74311Z" fill="#FFCB46"/>
</svg>
