<svg width="81" height="80" viewBox="0 0 81 80" fill="none" xmlns="http://www.w3.org/2000/svg">
<path d="M53.7716 42.742C58.2468 38.6734 61.0529 32.8012 61.0529 26.278C61.0529 13.9744 51.0786 4 38.778 4C26.4744 4 16.5 13.9713 16.5 26.278C16.5 32.8043 19.3061 38.6734 23.7783 42.742H37.2343V25.2937H30.2831V22.7168H46.7624V25.2937H39.8112V42.7389H53.7716V42.742Z" fill="#2D6961"/>
<path d="M48.4711 55.8649C47.8506 60.6151 43.7851 64.2833 38.8667 64.2833C33.9483 64.2833 29.8827 60.6151 29.2622 55.8649H48.4711Z" fill="#FFCB46"/>
<path d="M51.2772 44.6494H26.2726V54.2692H51.2772V44.6494Z" fill="#202020"/>
<g opacity="0.51">
<path d="M39.8112 76C46.1437 76 51.2773 75.1077 51.2773 74.0069C51.2773 72.9062 46.1437 72.0139 39.8112 72.0139C33.4787 72.0139 28.3451 72.9062 28.3451 74.0069C28.3451 75.1077 33.4787 76 39.8112 76Z" fill="#FFCB46"/>
</g>
<path d="M62.6761 11.0674C63.5726 11.0674 64.2993 10.3407 64.2993 9.44421C64.2993 8.54776 63.5726 7.82104 62.6761 7.82104C61.7797 7.82104 61.0529 8.54776 61.0529 9.44421C61.0529 10.3407 61.7797 11.0674 62.6761 11.0674Z" fill="#FFCB46"/>
</svg>
