<svg width="159" height="50" viewBox="0 0 159 50" fill="none" xmlns="http://www.w3.org/2000/svg">
<path d="M40.85 19.279C41.1652 19.279 41.4392 19.3954 41.6721 19.6284C41.905 19.8613 42.0215 20.1353 42.0215 20.4504V21.4986C42.0215 21.8137 41.905 22.0877 41.6721 22.3206C41.4392 22.5536 41.1652 22.67 40.85 22.67H38.3427C38.2194 22.67 38.1577 22.7317 38.1577 22.855V33.1103C38.1577 33.4254 38.0413 33.6994 37.8084 33.9324C37.5892 34.1653 37.322 34.2817 37.0069 34.2817H35.1161C34.801 34.2817 34.5269 34.1653 34.294 33.9324C34.0748 33.6994 33.9652 33.4254 33.9652 33.1103V22.855C33.9652 22.7317 33.9035 22.67 33.7802 22.67H31.2729C30.9578 22.67 30.6838 22.5536 30.4509 22.3206C30.2179 22.0877 30.1015 21.8137 30.1015 21.4986V20.4504C30.1015 20.1353 30.2179 19.8613 30.4509 19.6284C30.6838 19.3954 30.9578 19.279 31.2729 19.279H40.85ZM55.2523 19.279C55.5674 19.279 55.8414 19.3954 56.0744 19.6284C56.3073 19.8613 56.4237 20.1353 56.4237 20.4504V33.1103C56.4237 33.4254 56.3073 33.6994 56.0744 33.9324C55.8414 34.1653 55.5674 34.2817 55.2523 34.2817H53.4848C53.1697 34.2817 52.8957 34.1653 52.6628 33.9324C52.4299 33.6994 52.3134 33.4254 52.3134 33.1103V28.3012C52.3134 28.1779 52.2586 28.1162 52.149 28.1162H48.799C48.6757 28.1162 48.6141 28.1779 48.6141 28.3012V33.1103C48.6141 33.4254 48.4976 33.6994 48.2647 33.9324C48.0318 34.1653 47.7578 34.2817 47.4426 34.2817H45.6752C45.3601 34.2817 45.086 34.1653 44.8531 33.9324C44.6202 33.6994 44.5037 33.4254 44.5037 33.1103V20.4504C44.5037 20.1353 44.6202 19.8613 44.8531 19.6284C45.086 19.3954 45.3601 19.279 45.6752 19.279H47.4426C47.7578 19.279 48.0318 19.3954 48.2647 19.6284C48.4976 19.8613 48.6141 20.1353 48.6141 20.4504V24.8485C48.6141 24.9718 48.6757 25.0335 48.799 25.0335H52.149C52.2586 25.0335 52.3134 24.9718 52.3134 24.8485V20.4504C52.3134 20.1353 52.4299 19.8613 52.6628 19.6284C52.8957 19.3954 53.1697 19.279 53.4848 19.279H55.2523ZM68.1092 19.279C68.4243 19.279 68.6983 19.3954 68.9312 19.6284C69.1641 19.8613 69.2806 20.1353 69.2806 20.4504V21.3958C69.2806 21.7109 69.1641 21.985 68.9312 22.2179C68.6983 22.4508 68.4243 22.5673 68.1092 22.5673H63.7111C63.5878 22.5673 63.5261 22.6221 63.5261 22.7317V24.8485C63.5261 24.9718 63.5878 25.0335 63.7111 25.0335H67.6981C68.0132 25.0335 68.2873 25.1499 68.5202 25.3828C68.7531 25.6158 68.8696 25.8898 68.8696 26.2049V26.9448C68.8696 27.2599 68.7531 27.5339 68.5202 27.7668C68.2873 27.9998 68.0132 28.1162 67.6981 28.1162H63.7111C63.5878 28.1162 63.5261 28.171 63.5261 28.2806V30.8085C63.5261 30.9318 63.5878 30.9935 63.7111 30.9935H68.1092C68.4243 30.9935 68.6983 31.1099 68.9312 31.3428C69.1641 31.5758 69.2806 31.8498 69.2806 32.1649V33.1103C69.2806 33.4254 69.1641 33.6994 68.9312 33.9324C68.6983 34.1653 68.4243 34.2817 68.1092 34.2817H60.5872C60.2721 34.2817 59.9981 34.1653 59.7652 33.9324C59.5322 33.6994 59.4158 33.4254 59.4158 33.1103V20.4504C59.4158 20.1353 59.5322 19.8613 59.7652 19.6284C59.9981 19.3954 60.2721 19.279 60.5872 19.279H68.1092ZM80.7734 19.279C81.0885 19.279 81.3625 19.3954 81.5954 19.6284C81.8283 19.8613 81.9448 20.1353 81.9448 20.4504V21.3958C81.9448 21.7109 81.8283 21.985 81.5954 22.2179C81.3625 22.4508 81.0885 22.5673 80.7734 22.5673H76.3753C76.252 22.5673 76.1903 22.6221 76.1903 22.7317V24.8485C76.1903 24.9718 76.252 25.0335 76.3753 25.0335H80.3623C80.6774 25.0335 80.9515 25.1499 81.1844 25.3828C81.4173 25.6158 81.5338 25.8898 81.5338 26.2049V26.9448C81.5338 27.2599 81.4173 27.5339 81.1844 27.7668C80.9515 27.9998 80.6774 28.1162 80.3623 28.1162H76.3753C76.252 28.1162 76.1903 28.171 76.1903 28.2806V30.8085C76.1903 30.9318 76.252 30.9935 76.3753 30.9935H80.7734C81.0885 30.9935 81.3625 31.1099 81.5954 31.3428C81.8283 31.5758 81.9448 31.8498 81.9448 32.1649V33.1103C81.9448 33.4254 81.8283 33.6994 81.5954 33.9324C81.3625 34.1653 81.0885 34.2817 80.7734 34.2817H73.2514C72.9363 34.2817 72.6623 34.1653 72.4294 33.9324C72.1964 33.6994 72.08 33.4254 72.08 33.1103V20.4504C72.08 20.1353 72.1964 19.8613 72.4294 19.6284C72.6623 19.3954 72.9363 19.279 73.2514 19.279H80.7734Z" fill="#DE8A60"/>
<path d="M100.302 19.279C100.603 19.279 100.85 19.3954 101.042 19.6284C101.234 19.8613 101.302 20.1285 101.247 20.4299L98.8221 33.1308C98.7536 33.4597 98.5892 33.7337 98.3289 33.9529C98.0685 34.1721 97.7671 34.2817 97.4246 34.2817H95.0406C94.7118 34.2817 94.424 34.1721 94.1774 33.9529C93.9308 33.7337 93.7869 33.4597 93.7458 33.1308L92.6566 23.4099C92.6566 23.3962 92.6497 23.3893 92.636 23.3893C92.6223 23.3893 92.6155 23.3962 92.6155 23.4099L91.5262 33.1308C91.4851 33.4597 91.3413 33.7337 91.0947 33.9529C90.848 34.1721 90.5603 34.2817 90.2315 34.2817H87.8475C87.505 34.2817 87.1967 34.1721 86.9227 33.9529C86.6623 33.7337 86.5048 33.4597 86.45 33.1308L84.0249 20.4299C83.9564 20.1285 84.018 19.8613 84.2098 19.6284C84.4153 19.3954 84.6688 19.279 84.9702 19.279H86.7788C87.1076 19.279 87.3953 19.3886 87.642 19.6078C87.8886 19.827 88.0324 20.101 88.0736 20.4299L89.1628 30.1508C89.1628 30.1645 89.1696 30.1714 89.1833 30.1714C89.197 30.1714 89.2039 30.1645 89.2039 30.1508L90.1082 20.4299C90.1356 20.101 90.2726 19.827 90.5192 19.6078C90.7658 19.3886 91.0536 19.279 91.3824 19.279H93.9719C94.3007 19.279 94.5884 19.3886 94.8351 19.6078C95.0817 19.827 95.2187 20.101 95.2461 20.4299L96.1504 30.1508C96.1504 30.1645 96.1572 30.1714 96.1709 30.1714C96.1846 30.1714 96.1915 30.1645 96.1915 30.1508L97.2807 20.4299C97.3218 20.101 97.4657 19.827 97.7123 19.6078C97.9589 19.3886 98.2467 19.279 98.5755 19.279H100.302ZM106.256 26.7804C106.256 29.6576 107.249 31.0962 109.236 31.0962C111.223 31.0962 112.216 29.6576 112.216 26.7804C112.216 23.9031 111.223 22.4645 109.236 22.4645C107.249 22.4645 106.256 23.9031 106.256 26.7804ZM103.975 21.1286C105.263 19.7585 107.016 19.0735 109.236 19.0735C111.456 19.0735 113.209 19.7585 114.497 21.1286C115.785 22.4987 116.429 24.3827 116.429 26.7804C116.429 29.1781 115.785 31.062 114.497 32.4321C113.209 33.8022 111.456 34.4873 109.236 34.4873C107.016 34.4873 105.263 33.8022 103.975 32.4321C102.687 31.062 102.043 29.1781 102.043 26.7804C102.043 24.3827 102.687 22.4987 103.975 21.1286ZM123.64 26.061C124.339 26.061 124.887 25.8898 125.284 25.5473C125.695 25.191 125.901 24.7115 125.901 24.1086C125.901 22.807 125.147 22.1562 123.64 22.1562C123.297 22.1562 122.982 22.1768 122.695 22.2179C122.571 22.2453 122.51 22.3206 122.51 22.4439V25.8761C122.51 25.9994 122.571 26.061 122.695 26.061H123.64ZM128.942 30.1714L130.032 33.1925C130.127 33.4665 130.093 33.72 129.929 33.9529C129.764 34.1721 129.538 34.2817 129.251 34.2817H127.38C127.024 34.2817 126.702 34.179 126.414 33.9735C126.127 33.7679 125.935 33.5008 125.839 33.1719L124.935 30.3769C124.784 29.8974 124.592 29.5548 124.359 29.3493C124.126 29.1438 123.818 29.041 123.434 29.041H122.695C122.571 29.041 122.51 29.1027 122.51 29.226V33.1103C122.51 33.4254 122.393 33.6994 122.16 33.9324C121.927 34.1653 121.653 34.2817 121.338 34.2817H119.673C119.358 34.2817 119.084 34.1653 118.851 33.9324C118.618 33.6994 118.502 33.4254 118.502 33.1103V20.5532C118.502 20.2244 118.605 19.9366 118.81 19.69C119.029 19.4297 119.304 19.2858 119.632 19.2584C120.975 19.1351 122.379 19.0735 123.845 19.0735C127.956 19.0735 130.011 20.6148 130.011 23.6976C130.011 24.5608 129.744 25.3623 129.209 26.1022C128.689 26.842 128.004 27.3695 127.154 27.6846C127.141 27.6846 127.134 27.6915 127.134 27.7052C127.134 27.7326 127.141 27.7463 127.154 27.7463C127.565 27.9792 127.901 28.2738 128.161 28.63C128.435 28.9862 128.696 29.5 128.942 30.1714ZM145.876 19.279C146.191 19.279 146.465 19.3954 146.698 19.6284C146.931 19.8613 147.047 20.1353 147.047 20.4504V33.1103C147.047 33.4254 146.931 33.6994 146.698 33.9324C146.465 34.1653 146.191 34.2817 145.876 34.2817H144.375C144.06 34.2817 143.786 34.1653 143.553 33.9324C143.32 33.6994 143.204 33.4254 143.204 33.1103V26.0816C143.204 26.0679 143.197 26.061 143.183 26.061C143.17 26.061 143.163 26.0679 143.163 26.0816L141.663 30.1097C141.539 30.4386 141.334 30.7057 141.046 30.9113C140.758 31.1031 140.436 31.199 140.08 31.199H139.135C138.779 31.199 138.457 31.1031 138.169 30.9113C137.881 30.7057 137.676 30.4386 137.552 30.1097L136.052 26.0816C136.052 26.0679 136.045 26.061 136.031 26.061C136.018 26.061 136.011 26.0679 136.011 26.0816V33.1103C136.011 33.4254 135.894 33.6994 135.662 33.9324C135.429 34.1653 135.155 34.2817 134.839 34.2817H133.421C133.106 34.2817 132.832 34.1653 132.599 33.9324C132.366 33.6994 132.25 33.4254 132.25 33.1103V20.4504C132.25 20.1353 132.366 19.8613 132.599 19.6284C132.832 19.3954 133.106 19.279 133.421 19.279H135.251C135.607 19.279 135.929 19.3817 136.216 19.5873C136.504 19.7791 136.703 20.0394 136.812 20.3682L139.587 28.0957C139.587 28.1094 139.594 28.1162 139.607 28.1162C139.621 28.1162 139.628 28.1094 139.628 28.0957L142.403 20.3682C142.512 20.0394 142.711 19.7791 142.999 19.5873C143.286 19.3817 143.608 19.279 143.964 19.279H145.876Z" fill="#2D6961"/>
<path d="M0.890358 8.98944C0.869445 9.03079 0.849351 9.07294 0.830112 9.11592C0.333604 10.2251 1.14875 10.3341 2.20976 10.0922C2.23057 10.163 2.24575 10.2382 2.25487 10.3182C2.27134 10.4666 2.24896 10.6737 2.18773 10.9396C1.48169 13.9959 0.773749 17.0548 0.0639099 20.1162C0.0140818 20.3315 -0.00660948 20.5419 0.00183597 20.7473C0.01746 21.1192 0.0839677 21.4674 0.201359 21.7921C0.754325 23.3232 2.33658 23.1868 3.56729 22.7474C3.68088 22.7067 3.78772 22.6413 3.88779 22.5512C6.76192 19.9666 9.66411 17.3602 12.5943 14.732C13.1644 14.3255 13.8621 14.0962 13.9485 15.0308C11.5552 19.058 9.11928 23.1528 6.64059 27.3151C6.41805 27.6891 6.2483 28.0275 6.13133 28.3303C5.73481 29.359 5.43964 30.4701 5.49158 31.5644C5.53466 32.4657 5.8995 33.3252 6.63679 33.8167C7.77629 34.5759 9.26733 34.5926 10.4702 33.892C10.6568 33.7831 11.0128 33.5354 11.5381 33.1489C12.8201 32.2071 14.0527 31.2138 15.1916 30.1188C20.0123 25.4829 24.8325 20.8468 29.6523 16.2105C30.4859 15.409 31.3593 14.6273 32.2858 13.93C34.15 15.7612 36.8225 16.0487 37.9773 14.1728C39.208 12.1735 38.2244 9.71139 36.7316 8.27306C36.3166 7.87316 36.1358 7.7066 35.8724 7.53379C34.0102 6.31338 31.6767 7.52478 30.1407 8.78508C28.6961 9.97097 27.3678 11.156 26.1559 12.3402C25.6145 12.869 25.2685 13.2434 25.1177 13.4634C24.9911 13.6479 24.8563 13.8162 24.7136 13.9685C22.0139 16.8486 19.3138 19.7284 16.6134 22.6078C16.5488 22.6767 15.8557 23.1908 15.7718 23.2342C14.9425 23.663 13.6472 23.578 14.5265 21.5484C14.5633 21.4635 14.5936 21.3916 14.618 21.3319C15.8248 18.5586 17.021 15.811 18.2066 13.089C18.3244 12.8188 18.4579 12.5411 18.6069 12.2559C18.8316 11.8257 19.0096 11.3586 19.1409 10.8547C19.3328 10.1174 19.3468 9.32613 18.8958 8.70145C18.6775 8.39951 18.3964 8.21616 18.0527 8.15139C17.4645 8.04074 16.9263 8.11387 16.4381 8.37077C16.2642 8.46256 15.9842 8.66778 15.5982 8.98645C12.9092 11.2072 10.3266 13.3296 7.8504 15.3536C7.69558 15.48 7.54566 15.6153 7.39549 15.7508C7.01176 16.0969 6.62632 16.4447 6.15286 16.6518C5.81652 16.7991 5.60433 16.6023 5.60687 16.2658C5.6094 15.9875 5.65289 15.701 5.73735 15.4063C5.85854 14.9826 6.00253 14.5168 6.16933 14.009C6.48181 13.0581 6.8171 12.0228 7.17518 10.903C7.63821 9.45737 7.61604 7.27066 5.6284 7.05643C5.48173 7.04063 5.33413 7.0285 5.18618 7.02042L5.1881 7.00872C4.99904 6.99672 4.77163 6.9962 4.52035 7.01283C3.05497 7.06243 1.64065 7.57072 0.844269 8.9279C0.842111 8.93152 0.840724 8.93556 0.840195 8.93977C0.839666 8.94398 0.840006 8.94827 0.841194 8.95237C0.842382 8.95648 0.844393 8.9603 0.847101 8.96362C0.849809 8.96694 0.853157 8.96967 0.856937 8.97165L0.890358 8.98944Z" fill="#DE8A60"/>
<circle cx="34.2529" cy="10.4254" r="0.856322" fill="#202020"/>
</svg>
