<svg width="61" height="72" viewBox="0 0 61 72" fill="none" xmlns="http://www.w3.org/2000/svg">
<path d="M50.6389 0.62365L50.7415 32.4294L33.0591 4.29564C32.3336 3.13894 31.0811 2.44765 29.7123 2.44765C28.9696 2.44765 28.2407 2.65641 27.611 3.05339L27.1456 3.34769L27.1867 1.84539C27.2175 0.798204 28.0902 -0.0299676 29.1408 0.000831996" fill="#FFCB46"/>
<path d="M52.4766 39.0479L58.7494 49.0304L58.6536 52.4868C58.6262 53.5374 57.7502 54.3621 56.703 54.3347L51.6005 54.1944L50.8134 54.1704L27.6521 53.5271C26.6015 53.4963 25.7768 52.6236 25.8041 51.573L27.0772 5.81512L28.7027 4.79189C29.0176 4.59341 29.3666 4.50098 29.7123 4.50098C30.3454 4.50098 30.9614 4.81585 31.3207 5.39078L50.7552 36.3136L51.6142 37.679L52.4766 39.0342V39.0479Z" fill="#FFCB46"/>
<path d="M60.0362 2.75904L58.8521 45.3378L52.4629 35.1671L52.35 0.647583L58.1916 0.808415C59.2388 0.839215 60.067 1.71185 60.0362 2.75904Z" fill="#FFCB46"/>
<path d="M52.5245 54.191L51.6005 54.1945H50.8134V54.1705L50.7552 36.3136L51.6142 37.679L52.4766 39.0342V39.0479L52.5245 54.191Z" fill="#202020"/>
<path d="M60.5666 51.9221L58.7494 49.0304L52.4766 39.0479V39.0342L51.6142 37.679L50.7552 36.3136L31.3207 5.39078C30.9614 4.81585 30.3454 4.50098 29.7123 4.50098C29.3666 4.50098 29.0176 4.59341 28.7027 4.79189L27.0772 5.81512L1.3869 21.9575C0.50056 22.5187 0.233633 23.6891 0.791448 24.5789L30.0339 71.1102C30.3967 71.6851 31.0127 72 31.6458 72C31.9914 72 32.3405 71.9076 32.6519 71.7091L59.9711 54.5435C60.8575 53.9823 61.1244 52.8119 60.5666 51.9221ZM11.0888 33.3157L6.31826 25.7938L7.47154 25.0614L12.2455 32.5834L11.0888 33.3157ZM12.639 22.3613L16.5335 19.911C16.8346 19.7228 17.2282 19.8118 17.4164 20.113L21.8378 27.1455C22.0261 27.4433 21.9337 27.8402 21.6359 28.0284L17.7381 30.4787C17.4403 30.6669 17.0434 30.5746 16.8551 30.2768L12.4371 23.2442C12.2489 22.9431 12.3379 22.5496 12.639 22.3613ZM18.3575 44.9066L13.587 37.3847L14.7437 36.6523L19.5142 44.1743L18.3575 44.9066ZM25.3285 55.7549L20.5579 48.233L21.7112 47.5006L26.4852 55.0192L25.3285 55.7549ZM32.1317 66.6135L27.3578 59.0915L28.5145 58.3592L33.285 65.8812L32.1317 66.6135Z" fill="#2D6961"/>
<path d="M5.56539 57.8185C6.90163 57.8185 7.98487 56.7352 7.98487 55.399C7.98487 54.0628 6.90163 52.9795 5.56539 52.9795C4.22914 52.9795 3.1459 54.0628 3.1459 55.399C3.1459 56.7352 4.22914 57.8185 5.56539 57.8185Z" fill="#FFCB46"/>
<path d="M13.9668 3.03632C14.634 3.03632 15.1749 2.49545 15.1749 1.82828C15.1749 1.1611 14.634 0.620239 13.9668 0.620239C13.2997 0.620239 12.7588 1.1611 12.7588 1.82828C12.7588 2.49545 13.2997 3.03632 13.9668 3.03632Z" fill="#FFCB46"/>
</svg>
